<?xml version="1.0" standalone="no"?>
<!DOCTYPE svg PUBLIC "-//W3C//DTD SVG 20010904//EN"
 "http://www.w3.org/TR/2001/REC-SVG-20010904/DTD/svg10.dtd">
<svg version="1.0" xmlns="http://www.w3.org/2000/svg"
 width="438.000000pt" height="438.000000pt" viewBox="0 0 438.000000 438.000000"
 preserveAspectRatio="xMidYMid meet">
<metadata>
Created by potrace 1.14, written by Peter Selinger 2001-2017
</metadata>
<g transform="translate(0.000000,438.000000) scale(0.100000,-0.100000)"
fill="#000000" stroke="none">
<path d="M84 2610 c-44 -17 -64 -58 -64 -127 0 -118 24 -133 208 -133 116 0
131 -2 147 -20 15 -17 16 -24 7 -45 l-12 -25 -149 0 c-167 0 -201 -7 -201 -44
0 -44 16 -47 215 -44 l187 3 24 28 c21 24 24 38 24 101 0 68 -2 74 -31 102
-30 29 -31 29 -176 34 -137 5 -146 6 -154 26 -5 14 -2 29 7 43 14 20 24 21
173 21 109 0 161 4 169 12 18 18 14 56 -7 68 -24 12 -337 13 -367 0z"/>
<path d="M1612 2608 c-8 -8 -12 -65 -12 -191 l0 -179 34 -34 34 -34 157 0
c237 0 234 -3 235 246 0 197 -4 213 -54 200 -32 -8 -36 -28 -36 -198 l0 -148
-27 -6 c-53 -14 -58 -2 -63 175 -5 168 -9 180 -50 181 -35 0 -40 -21 -40 -173
0 -83 -5 -157 -10 -168 -12 -22 -59 -26 -78 -7 -8 8 -12 60 -12 168 0 164 -4
180 -45 180 -12 0 -26 -5 -33 -12z"/>
<path d="M1276 2597 c-11 -8 -17 -23 -14 -38 2 -19 9 -24 32 -24 40 0 56 27
32 54 -22 25 -26 25 -50 8z"/>
<path d="M2737 2592 c-10 -11 -17 -36 -17 -60 l0 -42 -85 0 c-89 0 -137 -15
-149 -45 -3 -9 -6 -65 -6 -125 0 -105 1 -109 26 -129 23 -18 41 -21 139 -21
160 0 155 -7 155 231 0 184 -4 209 -35 209 -7 0 -19 -8 -28 -18z m-17 -262 l0
-81 -77 3 -78 3 -3 64 c-2 35 -1 70 2 77 4 10 27 14 81 14 l75 0 0 -80z"/>
<path d="M3108 2599 c-13 -7 -18 -23 -18 -59 l0 -48 -100 -4 c-132 -4 -143
-14 -149 -128 -4 -98 4 -145 30 -171 16 -16 33 -19 130 -19 61 0 119 5 129 10
37 20 42 46 41 228 -1 153 -4 179 -18 190 -20 14 -23 14 -45 1z m-20 -266 l-3
-78 -77 -3 -78 -3 0 74 c0 40 3 77 7 80 3 4 40 7 80 7 l74 0 -3 -77z"/>
<path d="M3226 2594 c-31 -30 -8 -69 36 -62 30 4 38 46 12 65 -23 17 -29 16
-48 -3z"/>
<path d="M536 2474 c-9 -8 -16 -21 -16 -28 0 -29 25 -36 126 -36 73 0 105 -4
113 -13 18 -22 2 -27 -91 -27 -86 0 -91 -1 -120 -30 -28 -28 -30 -35 -26 -82
8 -79 25 -88 165 -88 108 0 115 1 138 25 23 23 25 31 25 130 0 104 -1 107 -29
136 -29 29 -30 29 -150 29 -95 0 -123 -3 -135 -16z m229 -204 c0 -12 -17 -16
-77 -18 -73 -3 -78 -2 -78 18 0 20 5 21 78 18 60 -2 77 -6 77 -18z"/>
<path d="M906 2477 c-14 -10 -17 -21 -12 -40 6 -26 7 -26 118 -29 98 -3 113
-5 116 -20 3 -16 -6 -18 -83 -18 -89 0 -137 -14 -149 -45 -3 -9 -6 -37 -6 -61
0 -34 6 -51 25 -69 23 -24 30 -25 138 -25 99 0 116 2 135 20 27 25 35 70 31
170 -6 118 -14 124 -172 128 -93 3 -126 0 -141 -11z m222 -209 c3 -16 -6 -18
-72 -18 -41 0 -78 5 -81 10 -14 22 9 31 78 28 59 -2 72 -6 75 -20z"/>
<path d="M1271 2477 c-6 -8 -12 -77 -13 -178 l-3 -164 -80 -5 c-87 -5 -105
-12 -105 -39 0 -34 21 -41 122 -41 92 0 101 2 123 25 25 24 25 26 25 204 0
150 -3 182 -16 195 -19 19 -38 20 -53 3z"/>
<path d="M2164 2481 c-44 -19 -54 -49 -54 -159 0 -96 2 -105 25 -127 23 -24
29 -25 153 -25 127 0 152 6 152 36 0 34 -30 44 -134 44 -56 0 -105 3 -109 6
-3 3 -3 12 0 20 4 11 28 14 100 14 86 0 96 2 118 25 35 34 35 102 1 142 -23
27 -28 28 -128 30 -56 2 -113 -1 -124 -6z m185 -84 c17 -22 3 -27 -74 -27 -77
0 -91 5 -74 27 7 8 34 13 74 13 40 0 67 -5 74 -13z"/>
<path d="M3236 2473 c-3 -10 -8 -40 -11 -68 -3 -27 -11 -80 -17 -118 -14 -84
-3 -117 40 -117 59 0 76 52 47 146 -8 27 -15 63 -15 80 0 52 -12 94 -26 94 -7
0 -15 -8 -18 -17z"/>
<path d="M3380 2477 c-13 -7 -30 -24 -37 -37 -16 -31 -17 -223 -3 -251 12 -21
54 -26 67 -6 4 6 10 59 13 117 l5 105 75 0 75 0 3 -112 c3 -111 3 -113 27
-119 48 -12 55 7 55 141 l0 123 -31 26 c-28 24 -38 26 -127 26 -58 0 -107 -5
-122 -13z"/>
<path d="M3744 2479 c-34 -17 -44 -53 -44 -160 0 -93 2 -102 25 -124 22 -23
32 -25 120 -25 88 0 95 -1 95 -20 0 -18 -8 -20 -111 -22 -94 -3 -114 -6 -123
-20 -8 -13 -8 -23 0 -35 10 -15 30 -18 141 -21 l131 -3 27 32 26 32 -3 163
c-4 211 -2 208 -156 211 -61 2 -116 -2 -128 -8z m194 -152 l3 -78 -78 3 -78 3
-3 64 c-4 92 -4 92 80 89 l73 -3 3 -78z"/>
<path d="M4115 2478 c-35 -18 -45 -40 -45 -93 0 -79 21 -93 140 -97 81 -3 95
-6 98 -20 3 -16 -7 -18 -106 -18 -118 0 -137 -7 -130 -52 3 -22 6 -23 132 -26
168 -3 176 1 176 98 0 67 -1 70 -30 85 -19 10 -58 15 -115 15 -77 0 -86 2 -83
18 3 15 18 17 116 20 l112 3 0 33 c0 22 -6 36 -16 40 -27 10 -228 6 -249 -6z"/>
<path d="M2235 2073 c-101 -53 -147 -159 -92 -211 35 -33 73 -28 114 13 26 26
34 41 31 62 -2 23 -8 28 -33 30 -27 2 -28 2 -7 -7 30 -13 29 -50 -3 -84 -27
-29 -66 -34 -89 -10 -35 34 -11 109 52 166 45 40 73 51 118 46 44 -5 44 -53
-1 -162 -38 -96 -46 -156 -19 -156 27 0 52 19 89 68 30 38 35 42 30 20 -10
-39 10 -68 46 -68 91 0 182 121 149 200 -12 30 -46 47 -72 37 -7 -3 -1 -6 15
-6 67 -2 57 -104 -18 -178 -46 -46 -90 -57 -102 -26 -4 9 3 44 15 77 25 68 26
76 13 76 -5 0 -28 -30 -51 -67 -104 -167 -142 -162 -74 10 42 104 47 153 19
173 -25 19 -93 17 -130 -3z"/>
<path d="M3169 1943 c-23 -43 -42 -83 -42 -88 0 -6 -11 -19 -24 -28 -20 -16
-23 -16 -23 -2 0 9 7 29 15 45 13 25 13 30 2 30 -16 0 -42 -48 -38 -70 5 -29
20 -34 41 -15 18 16 20 17 14 2 -4 -12 -1 -17 10 -17 11 0 16 9 16 26 0 26 48
84 69 84 14 0 14 -13 -1 -28 -7 -7 -8 -12 -2 -12 14 0 44 33 44 48 0 18 -21
15 -58 -8 l-33 -20 12 22 c7 13 25 42 41 66 21 30 25 42 14 42 -8 0 -33 -35
-57 -77z"/>
<path d="M3558 1980 c-13 -22 -30 -40 -38 -41 -9 0 -10 -2 -3 -5 24 -10 -31
-124 -60 -124 -11 0 -6 18 17 73 13 29 13 37 3 37 -7 0 -21 -21 -30 -47 -15
-41 -16 -49 -3 -62 14 -13 17 -13 34 2 16 15 20 15 33 1 19 -18 40 -11 58 19
14 22 13 22 -12 -1 -14 -13 -27 -20 -30 -15 -11 18 7 65 37 91 17 15 32 34 33
42 1 8 5 27 9 43 10 43 -21 34 -48 -13z m31 -14 c-7 -14 -16 -26 -21 -26 -5 0
-1 14 7 31 20 37 31 33 14 -5z m-19 -40 c0 -2 -7 -9 -15 -16 -13 -11 -14 -10
-9 4 5 14 24 23 24 12z"/>
<path d="M3752 2008 c-21 -27 -103 -200 -97 -206 4 -4 11 1 17 11 15 28 70 88
75 83 2 -2 -3 -18 -11 -35 -9 -16 -16 -34 -16 -39 0 -18 33 -23 48 -8 14 13
17 13 28 -2 11 -16 14 -15 38 7 21 19 26 21 26 8 0 -22 18 -31 35 -17 22 18
18 1 -10 -49 -29 -50 -29 -51 -11 -51 7 0 28 33 46 74 33 77 83 146 95 134 12
-12 -15 -67 -47 -93 -32 -27 -16 -35 20 -9 24 17 52 64 52 89 0 27 -29 29 -56
4 -23 -21 -26 -22 -22 -5 1 10 -3 21 -9 23 -7 3 -13 -3 -13 -12 0 -9 -7 -30
-16 -47 -9 -16 -11 -27 -5 -24 7 5 8 1 5 -9 -4 -9 -9 -13 -12 -11 -3 3 -11 1
-19 -5 -18 -16 -18 17 1 54 13 23 13 27 1 27 -8 0 -21 -12 -29 -28 -8 -15 -23
-36 -35 -46 -21 -19 -21 -19 -21 4 0 13 12 39 26 57 20 27 32 34 50 30 13 -2
21 0 18 4 -3 5 -17 9 -30 9 -28 0 -68 -37 -98 -90 -18 -32 -20 -33 -24 -12 -2
12 6 38 18 57 27 44 7 48 -41 8 l-32 -27 18 35 c10 18 29 51 42 71 12 21 23
40 23 43 0 10 -18 5 -28 -7z"/>
<path d="M3475 1961 c-7 -12 12 -24 25 -16 11 7 4 25 -10 25 -5 0 -11 -4 -15
-9z"/>
<path d="M2660 1910 c-44 -44 -47 -93 -7 -106 16 -5 28 1 49 25 15 17 28 36
28 43 0 6 -10 -4 -23 -23 -28 -42 -57 -51 -57 -17 0 16 10 27 33 38 38 18 51
60 18 60 -12 0 -30 -9 -41 -20z m50 2 c0 -14 -39 -46 -47 -39 -3 4 2 16 12 27
19 21 35 26 35 12z"/>
<path d="M3037 1919 c-9 -5 -26 -27 -36 -48 -24 -47 -51 -72 -51 -47 0 9 9 35
20 56 19 38 18 48 -6 32 -6 -4 -18 -26 -27 -49 -14 -36 -14 -43 -1 -54 11 -9
18 -8 33 5 16 15 19 15 24 1 8 -19 18 -19 43 1 18 14 18 15 -3 4 -19 -9 -23
-8 -23 6 0 25 39 82 60 89 11 4 25 3 31 -1 8 -4 9 -3 5 4 -9 15 -45 15 -69 1z"/>
<path d="M3302 1921 c-7 -4 -27 -30 -45 -57 -36 -55 -60 -63 -65 -21 -4 33
-22 36 -22 4 0 -43 35 -60 64 -31 15 14 17 14 32 0 8 -9 21 -16 29 -16 15 0
65 56 65 72 0 6 -10 -4 -23 -23 -28 -42 -57 -51 -57 -17 0 16 10 27 33 38 37
17 51 60 20 60 -10 0 -24 -4 -31 -9z m38 -9 c0 -14 -39 -46 -47 -39 -3 4 2 16
12 27 19 21 35 26 35 12z"/>
<path d="M4056 1888 c-4 -24 -22 -73 -41 -110 -26 -51 -31 -68 -20 -68 8 0 29
31 49 75 53 116 96 167 96 115 0 -11 -16 -38 -36 -60 -44 -49 -26 -54 22 -6
36 36 46 82 19 93 -9 3 -25 -3 -35 -12 -18 -16 -20 -17 -20 -2 0 10 -6 17 -14
17 -8 0 -16 -16 -20 -42z"/>
<path d="M4200 1910 c-41 -41 -47 -94 -12 -104 38 -11 62 0 92 43 18 24 26 40
18 36 -10 -6 -11 -5 0 6 6 7 12 17 12 22 0 19 -21 0 -52 -48 -37 -56 -68 -71
-68 -33 0 16 10 27 33 38 38 18 51 60 18 60 -12 0 -30 -9 -41 -20z m50 1 c0
-12 -29 -41 -41 -41 -14 0 -11 11 8 32 17 19 33 24 33 9z"/>
<path d="M2812 1860 c-35 -67 -29 -79 12 -25 15 19 24 35 20 35 -3 0 1 11 10
25 13 20 14 25 2 25 -7 0 -28 -27 -44 -60z"/>
<path d="M2869 1893 c-21 -24 -21 -25 -2 -9 l22 19 -16 -42 c-9 -23 -13 -45
-8 -49 4 -4 10 -1 13 6 2 8 18 30 36 50 17 20 25 33 19 28 -8 -4 -13 -1 -13 8
0 24 -24 19 -51 -11z"/>
<path d="M4341 1911 c-8 -5 -16 -18 -18 -28 -8 -48 -7 -76 5 -80 7 -3 10 1 6
10 -4 12 9 51 34 100 5 10 -10 9 -27 -2z"/>
<path d="M4360 1830 c-6 -11 -8 -20 -6 -20 3 0 10 9 16 20 6 11 8 20 6 20 -3
0 -10 -9 -16 -20z"/>
</g>
</svg>
